<svg width="38" height="38" viewBox="0 0 38 38" fill="none" xmlns="http://www.w3.org/2000/svg">
<path d="M23.7419 18.4276C23.4001 18.1404 22.8902 18.0005 22.1825 18.0005H15.3374V25.9997H17.4404V23.1513H22.182C22.8902 23.1513 23.4001 23.0119 23.7414 22.7246C24.0866 22.4342 24.2613 21.9867 24.2613 21.3951V19.7636C24.2618 19.1679 24.0871 18.7176 23.7419 18.4276ZM22.1436 21.0774C22.1436 21.3498 22.075 21.4224 22.0674 21.4288C22.0411 21.4524 21.923 21.4976 21.659 21.4976H17.4409V19.6399H21.659C21.923 19.6399 22.0411 19.6856 22.0669 19.7077C22.075 19.7151 22.1436 19.7876 22.1436 20.0605V21.0774ZM33.9919 22.8276C33.9555 22.2046 33.7915 21.7678 33.4932 21.4958C33.1529 21.1854 32.586 21.0354 31.7596 21.0354H27.0867V19.6878H32.0019V20.4992L33.9081 20.0051V19.5914C33.9081 19.2505 33.7375 18.761 33.3856 18.453C33.0383 18.1482 32.4694 18 31.6461 18H27.3749C26.5309 18 25.9579 18.1524 25.6222 18.4678C25.2896 18.7804 25.128 19.305 25.128 20.0739V20.7103C25.128 21.4792 25.2896 22.0047 25.6222 22.3169C25.9584 22.6314 26.5319 22.7847 27.3749 22.7847H32.0323V24.2901H26.8216V23.5009L24.8165 23.9244C24.8165 24.6947 24.9822 25.2206 25.3219 25.5338C25.6869 25.8704 26.2306 25.9678 26.7298 25.9918C26.9897 26.0043 27.2497 25.9988 27.5097 25.9988H31.7601C32.5976 25.9988 33.1685 25.8473 33.5042 25.5356C33.8379 25.2252 34 24.6979 34 23.9244V23.3047C33.9974 23.1194 33.9994 22.8258 33.9919 22.8276ZM11.8083 18.0005H6.26202C5.41345 18.0005 4.83646 18.1547 4.49824 18.4715C4.16305 18.7864 4 19.311 4 20.0744V23.9253C4 24.6896 4.16305 25.2142 4.49824 25.5282C4.83646 25.8455 5.41345 25.9997 6.26202 25.9997H11.8083C12.6448 25.9997 13.2152 25.8487 13.5549 25.5379C13.8911 25.228 14.0547 24.7002 14.0547 23.9253V20.0744C14.0547 19.3046 13.8911 18.7791 13.5554 18.4668C13.2172 18.1524 12.6458 18.0005 11.8083 18.0005ZM11.9744 24.2906H6.09594V19.6878H11.9744V24.2906Z" fill="#FB0A33"/>
<path d="M8.85816 13.4545C8.8979 13.4386 8.93473 13.4207 8.96866 13.4017C9.13732 13.304 9.2231 13.1625 9.2231 12.9801V12.6613C9.2231 12.4378 9.12084 12.2696 8.91874 12.1602C8.71858 12.0525 8.42003 12 8.00614 12H4V15H7.72601C8.21551 15 8.57754 14.9489 8.83344 14.8443C9.02343 14.7662 9.24975 14.6145 9.24975 14.3338V13.9835C9.24975 13.794 9.16106 13.6401 8.98708 13.5253C8.94782 13.4994 8.90517 13.4758 8.85816 13.4545ZM5.23102 12.6278H7.71729C7.8966 12.6278 7.9475 12.6466 7.94798 12.6466C7.94943 12.6475 7.97464 12.667 7.97464 12.7364V13.0111C7.97464 13.0739 7.95234 13.0991 7.9441 13.1037C7.94362 13.104 7.89855 13.125 7.71729 13.125H5.23102V12.6278ZM8.01438 14.1702C8.01438 14.2997 7.96785 14.3327 7.96252 14.3358C7.94604 14.3466 7.8748 14.3642 7.71729 14.3642H5.23102V13.7426H7.71729C7.90775 13.7426 7.95525 13.7691 7.9601 13.7725C7.96543 13.7759 8.01438 13.8102 8.01438 13.9418V14.1702ZM17.8485 12L15.0433 15H16.3262L16.9257 14.3262H19.8307L20.4297 15H21.8042L18.9506 12H17.8485ZM17.4869 13.7162L18.3802 12.7224L19.2767 13.7162H17.4869ZM29.8795 13.4406L33.6147 12H31.6601L29.025 13.0574V12H27.794V15H29.025V13.8824L31.8695 15H34L29.8795 13.4406ZM27.2081 12.7779C27.2081 12.4875 27.1131 12.2898 26.9178 12.1739C26.7215 12.0568 26.3866 12 25.8932 12H23.264C22.7711 12 22.4347 12.0571 22.2356 12.1747C22.0368 12.2918 21.9404 12.4892 21.9404 12.7779V14.2221C21.9404 14.5111 22.0368 14.7082 22.2356 14.8256C22.4352 14.9429 22.7711 15 23.264 15H25.8932C26.3861 15 26.7215 14.9432 26.9178 14.8264C27.1131 14.7102 27.2081 14.5125 27.2081 14.2221L25.977 14.0716V14.3594H23.1671V12.633H25.977V12.9119L27.2081 12.7779ZM11.1166 12H9.88614V15H14.6696V14.3591H11.1166V12Z" fill="white"/>
</svg>
