<svg width="38" height="38" viewBox="0 0 38 38" fill="none" xmlns="http://www.w3.org/2000/svg">
<path d="M21.2708 8.80289V6H16.7292V8.80289C12.7836 9.67769 9.67768 12.7835 8.80288 16.7293H6V21.2707H8.80288C9.67768 25.2165 12.7837 28.3223 16.7292 29.1972V32H21.2708V29.1972C25.2165 28.3224 28.3223 25.2165 29.1971 21.2707H32V16.7293H29.1971C28.3223 12.7835 25.2164 9.67769 21.2708 8.80289ZM18.9999 23.5415C16.4918 23.5415 14.4585 21.5083 14.4585 19C14.4585 16.4917 16.4918 14.4585 18.9999 14.4585C21.5082 14.4585 23.5415 16.4917 23.5415 19C23.5415 21.5083 21.5082 23.5415 18.9999 23.5415Z" fill="#C5412B"/>
</svg>
