<svg width="20" height="20" viewBox="0 0 20 20" fill="none" xmlns="http://www.w3.org/2000/svg">
<path fill-rule="evenodd" clip-rule="evenodd" d="M20 0H0V20H20V0ZM2.67057 8.22302L2.69113 12.3018L2.73948 12.3328C4.65294 11.6375 6.44374 11.6381 6.44374 11.6381L6.41911 9.02402C4.89759 8.99838 2.67057 8.22302 2.67057 8.22302ZM7.20423 8.99995L8.43081 8.97597L8.45534 11.638H7.25329L7.20423 8.99995ZM9.62584 10.3414L10.4178 9.51552L11.2493 10.3124L10.4689 11.1769L9.62584 10.3414ZM9.21574 7.04401L11.8502 7.03204L11.8748 8.27757H9.2525L9.21574 7.04401ZM10.772 12.5172L12.6468 10.6968L13.4555 11.6381L11.691 13.3914L10.772 12.5172ZM8.45388 2.54776L12.6271 2.52766C12.6271 2.52766 11.797 4.81209 11.7708 6.29918L9.23097 6.31128C9.23097 6.31128 9.13355 4.46518 8.4222 2.59502L8.45388 2.54776ZM14.4702 17.1392L17.3985 14.2331L17.3866 14.1778C15.5283 13.3519 14.1204 12.1175 14.1204 12.1175L12.3381 13.8861C13.3984 14.953 14.4702 17.1392 14.4702 17.1392Z" fill="#D34145"/>
</svg>
