<svg width="38" height="38" viewBox="0 0 38 38" fill="none" xmlns="http://www.w3.org/2000/svg">
<rect width="38" height="38" rx="10" fill="#2A2D35"/>
<path d="M14.0018 11.6069V26.4634C14.0018 26.4634 13.7581 30.0171 19.343 29.8963C19.343 29.8963 24.3668 30.4915 24.9995 26.5819V17.1396C24.9995 17.1396 24.6105 15.209 21.1875 15.209C21.1875 15.209 18.8333 15.1607 18.7126 15.9008L18.688 12.1801C18.688 12.1801 19.4414 11.3455 20.4117 12.2043L20.3871 14.4226H24.9995V11.6069C24.9995 11.6069 24.9883 7.84002 19.5689 8.05306C19.5666 8.05306 14.4154 7.62476 14.0018 11.6069Z" fill="#CECDCE"/>
<path d="M17.6194 20.3596V27.1795H17.4785V27.5463H17.8474V27.6803H18.9541V27.5309H19.1017V23.9837C19.1017 23.9837 19.5019 23.4675 20.4275 23.5817V21.728C20.4275 21.728 21.2323 21.3216 22.7236 21.3216V19.626C22.7236 19.626 22.1691 18.8507 20.8813 19.7161C20.8813 19.7161 19.4102 20.5068 19.0994 19.6194H17.8854V19.738H17.6127V19.9885H17.4808V20.2652H17.6149L17.6194 20.3596V20.3596Z" fill="black"/>
<path d="M19.2178 22.389V23.4323H20.3021V21.987L20.1501 21.7256H19.8997L19.9064 21.9716C19.9064 21.9716 20.1635 22.0156 20.1948 22.1737L20.0987 22.2638C20.1009 22.2616 19.8236 21.853 19.2178 22.389V22.389Z" fill="#CECDCE"/>
</svg>
