<svg width="38" height="38" viewBox="0 0 38 38" fill="none" xmlns="http://www.w3.org/2000/svg">
<path d="M9 9L13.6476 11.4833V24.9475L16.8872 24.5558L9 29V9Z" fill="white"/>
<path d="M9 9L13.6476 11.4833V24.9475L16.8872 24.5558L9 29V9Z" fill="white"/>
<path d="M29 9L24.3524 11.4833V25.0783L21.1128 24.5558L29 29V9Z" fill="white"/>
<path d="M29 9L24.3524 11.4833V25.0783L21.1128 24.5558L29 29V9Z" fill="white"/>
<path d="M16.6062 16.9742H21.2538V22.8558L19 28.7383L16.6062 22.8558V16.9742Z" fill="white"/>
<path d="M16.6062 16.9742H21.2538V22.8558L19 28.7383L16.6062 22.8558V16.9742Z" fill="white"/>
</svg>
