<svg width="30" height="28" viewBox="0 0 30 28" fill="none" xmlns="http://www.w3.org/2000/svg">
<path fill-rule="evenodd" clip-rule="evenodd" d="M14.8732 9.19926C14.0034 9.26261 12.3501 9.22015 11.0685 8.63584C9.29306 7.82633 6.50301 7.01683 3.9666 9.98501C1.43018 12.9532 -0.598945 21.5879 0.161978 25.9052C0.770717 29.3591 3.96661 27.5243 5.48846 26.1751C6.50303 24.4661 9.19163 21.0482 11.8295 21.0482H18.1705C20.8084 21.0482 23.497 24.4661 24.5115 26.1751C26.0334 27.5243 29.2293 29.3591 29.838 25.9052C30.5989 21.5879 28.5698 12.9532 26.0334 9.98501C23.497 7.01683 20.7069 7.82633 18.9315 8.63584C17.6499 9.22015 15.9966 9.26261 15.1268 9.19926V9.17551C15.0874 9.18016 15.0451 9.18462 15 9.1888C14.9549 9.18462 14.9125 9.18016 14.8732 9.17551V9.19926ZM11.3221 15.044C9.49586 14.6163 7.17927 13.262 6.24926 12.6383C5.65743 12.371 4.72741 12.5314 5.74197 15.3113C6.83351 18.3021 9.24032 18.1247 10.6983 18.0173C10.9343 17.9999 11.1454 17.9843 11.3221 17.9843C12.5903 17.9843 13.6048 15.5786 11.3221 15.044ZM23.8402 12.6383C22.9101 13.262 20.5936 14.6163 18.7673 15.044C16.4846 15.5786 17.4991 17.9843 18.7673 17.9843C18.944 17.9843 19.1551 17.9999 19.3911 18.0173C20.8491 18.1247 23.2559 18.3021 24.3474 15.3113C25.362 12.5314 24.432 12.371 23.8402 12.6383Z" fill="#F3F3F3"/>
<path d="M22.8512 1.71104L18.9768 5.81906C18.5454 6.27657 17.7921 5.78849 18.054 5.22105L20.314 0.323012C20.445 0.0390907 20.791 -0.0812477 21.0757 0.0580739L22.69 0.848079C23.0239 1.01147 23.1044 1.44258 22.8512 1.71104Z" fill="#F3F3F3"/>
<path d="M9.41501 2.19767L10.906 4.25C11.2249 4.68892 10.6652 5.22484 10.2266 4.90067L8.19146 3.39681C7.96025 3.22595 7.93431 2.89454 8.13623 2.69098L8.68028 2.14251C8.88916 1.93194 9.24116 1.95836 9.41501 2.19767Z" fill="#F3F3F3"/>
<path d="M16.5645 24H13.4355C13.0854 24 12.8789 24.4993 13.0772 24.8661L14.6418 27.7603C14.8145 28.0799 15.1855 28.0799 15.3582 27.7603L16.9228 24.8661C17.1211 24.4993 16.9146 24 16.5645 24Z" fill="#F3F3F3"/>
</svg>
