<svg width="24" height="24" viewBox="0 0 24 24" fill="none" xmlns="http://www.w3.org/2000/svg">
<path d="M12.1375 0.00134049H11.9033H11.8633C9.37287 0.00134049 6.92809 0.818632 4.90601 2.33319L7.23654 4.93938C8.52177 4.08208 9.88125 3.49912 11.9033 3.45911C14.0397 3.45911 15.4791 4.08208 16.8043 4.93938L19.1349 2.33319C17.1528 0.818632 14.6623 -0.0386668 12.1375 0.00134049Z" fill="#FFBA0D"/>
<path d="M20.3001 3.27051L18.0038 5.83669L18.0838 5.9167C20.8028 8.6372 21.3911 12.878 19.4833 16.2272L14.8965 11.8321L12.7202 6.774V14.4783L17.1927 18.7991C16.9585 18.9534 16.7243 19.1477 16.4901 19.2677L16.3359 19.382C15.0507 20.1193 13.617 20.5079 12.1375 20.5079H11.9033C10.4239 20.5079 8.98444 20.1193 7.70493 19.382L7.5507 19.302C7.3165 19.1477 7.08231 18.9934 6.84811 18.8333L11.2407 14.4783V6.774L9.06441 11.8321L4.55185 16.2272C2.64401 12.8837 3.23235 8.64291 5.91133 5.9167L6.02557 5.8024L3.7293 3.23621L3.45512 3.51055C-1.17168 8.17997 -1.13169 15.8042 3.45512 20.4336L3.60935 20.5879C4.70036 21.6396 5.90561 22.4569 7.30508 23.0398L7.61353 23.1541L7.72778 23.2684L8.03623 23.3827C8.42465 23.5371 8.85306 23.6571 9.28147 23.7314L10.0583 23.8857L10.8751 24H11.0294H11.3378H12.0004L12.2746 23.96H12.703H12.9772H13.1714L13.9882 23.8457L14.7651 23.6914C15.1935 23.6114 15.6219 23.457 16.0103 23.3427L16.2445 23.2627L16.6729 23.0684L16.7129 23.0284C18.0324 22.4854 19.2776 21.6681 20.3287 20.6565L20.7971 20.1879C25.2411 15.4099 25.0469 7.81991 20.3001 3.27051Z" fill="white"/>
</svg>
