<svg width="38" height="38" viewBox="0 0 38 38" fill="none" xmlns="http://www.w3.org/2000/svg">
<path d="M24.2501 12.6H22.1773L21.8418 11.8844C21.5877 11.3422 21.0684 11 20.5 11H17.5C16.9317 11 16.4124 11.3422 16.1583 11.8844L15.8228 12.6H13.75C10.0279 12.6 7 15.8297 7 19.8C7 23.7703 10.0279 27 13.75 27C15.3049 27 16.7866 26.4359 17.9856 25.4H20.0144C21.2134 26.4359 22.6951 27 24.25 27C27.9722 27 31 23.7703 31 19.8C31 15.8297 27.9722 12.6 24.2501 12.6ZM16 20.6H14.5V22.2H13V20.6H11.5V19H13V17.4H14.5V19H16V20.6ZM24.2501 17.4C24.6643 17.4 25.0001 17.7581 25.0001 18.2C25.0001 18.6418 24.6642 19 24.2501 19C23.8359 19 23.5001 18.6418 23.5001 18.2C23.5001 17.7581 23.8359 17.4 24.2501 17.4ZM22.7501 20.6C22.3359 20.6 22.0001 20.2418 22.0001 19.8C22.0001 19.3581 22.3359 19 22.7501 19C23.1643 19 23.5001 19.3582 23.5001 19.8C23.5001 20.2418 23.1642 20.6 22.7501 20.6ZM24.2501 22.2C23.8359 22.2 23.5001 21.8418 23.5001 21.4C23.5001 20.9581 23.8359 20.6 24.2501 20.6C24.6643 20.6 25.0001 20.9582 25.0001 21.4C25.0001 21.8418 24.6642 22.2 24.2501 22.2ZM25.75 20.6C25.3359 20.6 25 20.2418 25 19.8C25 19.3581 25.3359 19 25.75 19C26.1642 19 26.5 19.3582 26.5 19.8C26.5001 20.2418 26.1642 20.6 25.75 20.6Z" fill="#E7D579"/>
</svg>
