<svg width="72" height="48" viewBox="0 0 72 48" fill="none" xmlns="http://www.w3.org/2000/svg">
<path d="M16.1562 17.2761C15.4042 16.7591 14.4228 16.5 13.2122 16.5H8.52509C8.15395 16.5 7.9489 16.6856 7.90995 17.0565L6.00598 29.0083C5.98619 29.1256 6.01556 29.233 6.09382 29.3306C6.17163 29.4284 6.26949 29.477 6.3867 29.477H8.61302C9.00351 29.477 9.21813 29.2918 9.25753 28.9205L9.78474 25.6983C9.80399 25.5422 9.87267 25.4152 9.98988 25.3174C10.107 25.2198 10.2535 25.156 10.4293 25.1268C10.605 25.0978 10.7708 25.0831 10.9273 25.0831C11.0833 25.0831 11.2688 25.093 11.4839 25.1125C11.6986 25.1319 11.8354 25.1415 11.894 25.1415C13.5735 25.1415 14.8917 24.6683 15.8488 23.7208C16.8054 22.7738 17.2843 21.4606 17.2843 19.7806C17.2843 18.6284 16.9079 17.7937 16.1562 17.2759V17.2761ZM13.7396 20.8649C13.6417 21.5485 13.3881 21.9975 12.978 22.2124C12.5678 22.4275 11.982 22.5346 11.2204 22.5346L10.2537 22.5638L10.7518 19.4293C10.7906 19.2147 10.9175 19.1072 11.1325 19.1072H11.6893C12.47 19.1072 13.0367 19.2198 13.3883 19.444C13.7396 19.6687 13.8568 20.1425 13.7396 20.8649Z" fill="#0041B8"/>
<path d="M65.6189 16.5H63.4514C63.236 16.5 63.1092 16.6074 63.0705 16.8224L61.1663 29.0088L61.137 29.0674C61.137 29.1655 61.176 29.2578 61.2544 29.3457C61.332 29.4335 61.4301 29.4774 61.5471 29.4774H63.4808C63.8513 29.4774 64.0564 29.2923 64.0961 28.921L66 16.9396V16.9105C66 16.637 65.8726 16.5004 65.6189 16.5004V16.5Z" fill="#009CDE"/>
<path d="M39.4302 21.2167C39.4302 21.1193 39.391 21.0264 39.3133 20.9387C39.235 20.8509 39.1471 20.8066 39.0496 20.8066H36.794C36.5788 20.8066 36.403 20.9048 36.2666 21.0995L33.1615 25.6695L31.8725 21.2755C31.7744 20.9632 31.5599 20.8066 31.2281 20.8066H29.0307C28.9328 20.8066 28.845 20.8507 28.7674 20.9387C28.689 21.0264 28.6501 21.1195 28.6501 21.2167C28.6501 21.256 28.8406 21.832 29.2213 22.9451C29.6021 24.0586 30.0121 25.2597 30.4516 26.5487C30.8911 27.8375 31.1204 28.5214 31.14 28.5988C29.5385 30.7865 28.7381 31.9582 28.7381 32.1142C28.7381 32.3683 28.8648 32.4951 29.1189 32.4951H31.3745C31.5892 32.4951 31.7649 32.3977 31.9019 32.2023L39.372 21.4217C39.4108 21.383 39.4302 21.315 39.4302 21.2166V21.2167Z" fill="#0041B8"/>
<path d="M60.4344 20.8066H58.208C57.9343 20.8066 57.7689 21.129 57.7102 21.7736C57.2018 20.9926 56.2748 20.6016 54.927 20.6016C53.521 20.6016 52.3247 21.129 51.3387 22.1836C50.3523 23.2382 49.8594 24.4787 49.8594 25.9041C49.8594 27.0566 50.1962 27.9744 50.8698 28.6577C51.5436 29.3417 52.4467 29.683 53.5798 29.683C54.1461 29.683 54.7221 29.5656 55.308 29.3315C55.8939 29.0971 56.3524 28.7848 56.685 28.3941C56.685 28.4137 56.6651 28.5012 56.6265 28.6574C56.587 28.8139 56.5677 28.9315 56.5677 29.0089C56.5677 29.3218 56.6943 29.4776 56.9486 29.4776H58.9701C59.3407 29.4776 59.5557 29.2924 59.6141 28.9211L60.8154 21.2753C60.8346 21.158 60.8054 21.0508 60.7274 20.953C60.6489 20.8556 60.5515 20.8066 60.4344 20.8066ZM56.6116 26.5778C56.1136 27.0661 55.513 27.3101 54.81 27.3101C54.2434 27.3101 53.7849 27.1541 53.4331 26.8414C53.0814 26.5297 52.9057 26.1 52.9057 25.5525C52.9057 24.8305 53.1498 24.2196 53.6383 23.7217C54.1258 23.2237 54.7318 22.9747 55.4544 22.9747C56.0008 22.9747 56.4549 23.1358 56.8166 23.4579C57.1775 23.7802 57.3587 24.2245 57.3587 24.7911C57.3585 25.494 57.1095 26.0898 56.6116 26.5778Z" fill="#009CDE"/>
<path d="M27.5753 21.205H25.3489C25.0751 21.205 24.9095 21.5274 24.8508 22.172C24.3235 21.391 23.3958 21 22.0678 21C20.6617 21 19.4654 21.5274 18.4793 22.582C17.4929 23.6366 17 24.8771 17 26.3026C17 27.455 17.3369 28.3728 18.0107 29.0561C18.6845 29.7401 19.5875 30.0814 20.7204 30.0814C21.2669 30.0814 21.8336 29.964 22.4194 29.7299C23.0052 29.4956 23.474 29.1833 23.8255 28.7925C23.7472 29.0266 23.7083 29.2318 23.7083 29.4074C23.7083 29.7202 23.8352 29.876 24.0891 29.876H26.1104C26.4811 29.876 26.6962 29.6909 26.7549 29.3195L27.9559 21.6737C27.9751 21.5564 27.9459 21.4492 27.868 21.3514C27.7899 21.254 27.6924 21.205 27.5753 21.205ZM23.7524 26.9908C23.2543 27.4698 22.6438 27.7085 21.9216 27.7085C21.3549 27.7085 20.9009 27.5525 20.5594 27.2399C20.2174 26.9281 20.0467 26.4984 20.0467 25.9509C20.0467 25.2289 20.2907 24.618 20.7791 24.1201C21.267 23.6221 21.8725 23.3731 22.5953 23.3731C23.1419 23.3731 23.5959 23.5343 23.9576 23.8563C24.3186 24.1787 24.4995 24.623 24.4995 25.1895C24.4994 25.9121 24.2505 26.5128 23.7524 26.9908Z" fill="#0041B8"/>
<path d="M49.4345 17.2761C48.6825 16.7591 47.7014 16.5 46.4905 16.5H41.8326C41.442 16.5 41.227 16.6856 41.1882 17.0565L39.2841 29.0083C39.2643 29.1256 39.2936 29.233 39.372 29.3306C39.4494 29.4284 39.5476 29.477 39.6648 29.477H42.0668C42.3011 29.477 42.4572 29.3502 42.5356 29.0963L43.0629 25.6983C43.0823 25.5422 43.1506 25.4152 43.268 25.3174C43.3852 25.2198 43.5315 25.156 43.7075 25.1268C43.8831 25.0978 44.0488 25.0831 44.2054 25.0831C44.3616 25.0831 44.5469 25.093 44.7619 25.1125C44.9766 25.1319 45.1138 25.1415 45.172 25.1415C46.8518 25.1415 48.1697 24.6683 49.1268 23.7208C50.0838 22.7738 50.5622 21.4606 50.5622 19.7806C50.5623 18.6284 50.1861 17.7936 49.4345 17.2759V17.2761ZM46.4319 22.0951C46.0022 22.388 45.3576 22.5344 44.4986 22.5344L43.561 22.5637L44.059 19.4291C44.0977 19.2146 44.2247 19.1069 44.4397 19.1069H44.9669C45.3966 19.1069 45.7383 19.1266 45.9925 19.1655C46.2459 19.2047 46.4905 19.3266 46.7248 19.5315C46.9593 19.7367 47.0763 20.0347 47.0763 20.4251C47.0763 21.2456 46.8613 21.8019 46.4319 22.0951Z" fill="#009CDE"/>
</svg>
