<svg width="38" height="38" viewBox="0 0 38 38" fill="none" xmlns="http://www.w3.org/2000/svg">
<path d="M26.5906 13.8784L27.6249 12.7866L24.5215 9.51091L23.4872 10.6027L22.6253 9.69287C22.3396 9.39128 21.8765 9.39128 21.5908 9.69287C21.3051 9.99426 21.3051 10.4832 21.5908 10.7846L21.7001 10.9001L12.3436 18.7329C12.1687 18.8794 12.0667 19.1022 12.0667 19.3379V25.1613C12.0667 25.5877 12.3941 25.9333 12.7981 25.9333H18.3151C18.5383 25.9333 18.7494 25.8258 18.8882 25.641L26.3088 15.7648L26.4182 15.8802C26.5609 16.031 26.7481 16.1064 26.9353 16.1064C27.1224 16.1064 27.3096 16.031 27.4525 15.8802C27.738 15.5788 27.738 15.0898 27.4525 14.7884L26.5906 13.8784ZM19.5219 19.1559C19.3791 19.3067 19.1918 19.3821 19.0048 19.3821C18.8175 19.3821 18.6303 19.3067 18.4876 19.1559C18.2019 18.8543 18.2019 18.3655 18.4876 18.0639L23.4872 12.7864L24.5217 13.8784L19.5219 19.1559Z" fill="#7B61FF"/>
<path d="M18.3496 27.4812H12.7111C11.4745 27.4812 10.4684 26.4638 10.4684 25.2133V19.5112C10.4684 18.8149 10.7778 18.1672 11.3174 17.7343L19.6364 11.0621C15.2343 9.75306 10.7959 10.208 6.4133 12.424C6.16003 12.5522 6 12.8138 6 13.1003V20.9159C6 26.1575 9.51199 30.7062 14.5403 31.9774C14.5997 31.9926 14.6606 32 14.7216 32C14.7825 32 14.8432 31.9926 14.9028 31.9774C19.4141 30.8369 22.7039 27.0585 23.3333 22.5086L20.1067 26.6227C19.6788 27.1682 19.0384 27.4812 18.3496 27.4812Z" fill="#7B61FF"/>
<path d="M31.2103 6.691C30.7009 6.24535 30.0238 6 29.3036 6C28.5834 6 27.9063 6.24535 27.397 6.691L25.0667 8.73002L28.88 12.0667L31.2103 10.0277C31.7193 9.582 32 8.98951 32 8.35933C32 7.72915 31.7196 7.13666 31.2103 6.691Z" fill="#7B61FF"/>
</svg>
