<svg width="38" height="38" viewBox="0 0 38 38" fill="none" xmlns="http://www.w3.org/2000/svg">
<path d="M28 13.1866V22.2629C28 24.8778 26.0167 27 23.5731 27H14.7192C14.3119 27 13.9223 26.9432 13.5416 26.8295C12.9927 26.6684 12.8156 25.9199 13.2229 25.4841L22.6345 15.4131C22.8293 15.2046 23.1215 15.1573 23.396 15.2141C23.6793 15.2709 23.9892 15.1857 24.2105 14.9583L26.486 12.514C27.3183 11.6234 28 11.9171 28 13.1866Z" fill="#D34145"/>
<path d="M21.7274 14.5464L12.0133 24.7124C11.568 25.1785 10.8257 25.062 10.5288 24.4794C10.1856 23.8191 10 23.0521 10 22.2462V12.9444C10 11.6433 10.7144 11.3423 11.5865 12.255L13.9803 14.7698C14.3421 15.1387 14.9359 15.1387 15.2978 14.7698L18.6193 11.284C18.9811 10.9053 19.5749 10.9053 19.9368 11.284L21.7367 13.1677C22.0893 13.5463 22.0893 14.1678 21.7274 14.5464Z" fill="#D34145"/>
</svg>
