<svg width="38" height="38" viewBox="0 0 38 38" fill="none" xmlns="http://www.w3.org/2000/svg">
<path fill-rule="evenodd" clip-rule="evenodd" d="M15.4582 10.1255C15.3369 10.2003 15.2813 10.3228 15.2687 10.3747C15.1676 10.4059 14.9579 10.518 14.9276 10.7174C14.8972 10.9168 14.6622 10.9251 14.5485 10.9043C14.5485 10.5803 13.9168 10.6863 13.6009 10.7797C12.9944 10.8794 12.7165 11.2158 12.6533 11.3716C12.3501 11.5959 12.2237 11.9012 12.1985 12.0258H11.971C11.7588 12.0258 11.5793 12.1711 11.5162 12.2438C11.4909 12.4307 11.41 12.9167 11.2887 13.3653C11.1675 13.8138 11.0462 14.0232 10.9249 14.2325C10.8945 14.2848 10.8642 14.3372 10.8339 14.3933C10.7126 14.6175 10.6823 15.0682 10.6823 15.2655C10.6444 15.2966 10.5382 15.5147 10.4169 16.1377C10.2957 16.7607 10.4675 17.2695 10.5686 17.4461C10.6823 17.6641 11.0234 17.8822 11.5162 18.0379C11.9104 18.1625 11.9584 18.2768 11.9331 18.3183H11.2887C11.2887 18.7337 11.3115 19.5955 11.4025 19.7201C11.5162 19.8759 11.5541 20.0316 11.592 20.7481C11.6299 21.4646 11.4025 22.368 11.2887 22.7729C11.2214 23.0128 11.3536 23.384 11.4725 23.7179C11.5543 23.9476 11.6299 24.1597 11.6299 24.2993C11.6299 24.642 10.9855 25.67 10.5307 26.2619C10.1668 26.7354 10.0253 28.9512 10 30H12.9186V27.8194C13.2019 26.8246 13.5552 26.5345 13.9429 26.2162C14.1257 26.066 14.3162 25.9096 14.5106 25.67C14.9958 25.0719 14.9958 24.3741 14.9958 23.8797C14.9958 23.7561 14.9958 23.6452 15.0034 23.5517C15.0337 23.1779 15.1929 23.0014 15.2687 22.9598C15.2561 22.991 15.2535 23.1156 15.3445 23.3648C15.4582 23.6763 16.4058 24.3616 16.5953 24.3928C16.747 24.4177 16.9365 24.5693 17.0123 24.642C16.9365 24.8185 16.8304 25.2276 17.0123 25.4519C17.1691 25.6453 17.1097 25.8534 17.0576 26.0355C17.0342 26.1175 17.0123 26.1942 17.0123 26.2619C17.0123 26.3672 16.9592 26.6473 16.9043 26.9367C16.8456 27.246 16.7849 27.566 16.7849 27.6948C16.7849 27.944 16.7849 28.4113 17.0123 28.7228C17.1942 28.972 17.1639 29.6781 17.126 30H20.0067C19.9941 29.9065 19.9764 29.6386 20.0067 29.3147C20.0321 29.0435 19.9555 28.2414 19.8907 27.5633C19.8588 27.2289 19.8297 26.9246 19.8172 26.7291C19.7793 26.1373 19.8551 25.9192 20.0067 25.5142C20.1584 25.1093 20.2342 24.2993 20.1584 24.1436C20.1253 24.0757 20.1139 23.984 20.102 23.8894C20.0868 23.767 20.0709 23.6395 20.0067 23.5517C19.9158 23.4271 19.7161 23.5205 19.6277 23.5829C19.6277 23.5102 19.5898 23.3212 19.4382 23.1467C19.2487 22.9287 19.0212 22.3057 18.8317 21.7761C18.692 21.3858 18.6141 21.1985 18.5221 20.9774C18.4893 20.8985 18.4546 20.8152 18.4148 20.7169C18.2935 20.4179 17.9094 19.8239 17.7325 19.5643V18.4741C17.7451 18.4014 17.8234 18.256 18.0357 18.256C18.1735 18.256 18.301 18.2224 18.4237 18.1901C18.5372 18.1602 18.6466 18.1314 18.7559 18.1314C18.891 18.1314 18.879 18.0764 18.8549 17.9665C18.8384 17.8914 18.8163 17.7906 18.8317 17.6641C18.8696 17.3526 19.0212 16.9788 19.2107 16.5738C19.383 16.2057 19.2421 16.0435 19.1581 15.9468C19.1497 15.9372 19.1418 15.9282 19.1349 15.9197C19.0591 15.8262 18.8317 15.7639 18.5285 15.7639C18.241 15.7639 18.4985 15.484 18.623 15.3487C18.6298 15.3413 18.6363 15.3343 18.6422 15.3278C18.7559 15.2032 18.9075 15.1409 19.0212 15.2343C19.1349 15.3278 19.5898 15.5458 20.2721 15.7639C20.7352 15.9119 20.7442 15.9021 20.8801 15.7538C20.9444 15.6836 21.037 15.5825 21.2197 15.4524C21.6745 15.1284 22.2178 14.279 22.4326 13.8948H22.7358V13.4899L23.1149 13.0849V12.7422L23.456 12.1192H25.844V12.0569H25.9198V11.9635H25.7682V11.87H25.9198V11.6667H28V10.9355H26.0714V10.7486H21.9778V10.624H22.0915V10.437L21.902 10.2813V9.78287C21.2449 9.79326 19.9385 9.80779 19.9688 9.78287C20.0901 9.73303 20.0194 9.6375 19.9688 9.59597L19.1728 9.15985C18.9909 9.06017 18.7685 8.99371 18.6801 8.97294C18.6801 8.22531 17.8209 8.01764 17.3913 8.00726C16.1784 7.93249 15.5972 8.45376 15.4582 8.72374C15.155 9.12247 15.3319 9.67904 15.4582 9.90748C15.3976 10.0072 15.4329 10.0944 15.4582 10.1255ZM19.4761 9.90738H18.9454C18.8241 10.2064 18.996 10.385 19.0971 10.437V10.5616L18.7938 10.7485V10.9665H19.0212L19.2487 10.7485H19.8551V10.437H19.4761V9.90738ZM20.3858 10.6862V10.5616H20.6132V10.6239H20.7648V10.6862H20.3858ZM19.0592 12.3995L18.718 12.0568H19.4761L19.3245 12.306V12.4306H19.2487V12.5241H19.0971L19.0592 12.3995ZM21.2955 12.6175H21.1439V12.7733H21.0681V12.8667H20.7648V12.9291H21.2955V12.6175ZM20.1584 13.6767L20.5374 14.3932C20.7648 14.2997 21.2349 14.063 21.2955 13.8636C21.3562 13.6642 21.3713 13.469 21.3713 13.3963H21.2197V13.2406H21.3713L21.2955 13.0537H20.7648C20.7901 13.2198 20.7042 13.577 20.1584 13.6767ZM18.7938 16.0442C18.5512 16.0691 18.44 16.2622 18.4148 16.3557C18.718 16.0816 18.8949 16.1999 18.9454 16.2934C19.0667 16.1189 18.8949 16.0546 18.7938 16.0442ZM11.5541 13.3963C11.6299 13.5002 11.7057 13.7577 11.4025 13.957C11.4151 13.9467 11.4631 13.82 11.5541 13.3963Z" fill="#E7A849"/>
</svg>
