<svg width="38" height="38" viewBox="0 0 38 38" fill="none" xmlns="http://www.w3.org/2000/svg">
<path d="M29 19.6963V12.1227C29 12.0059 28.8501 11.9572 28.7701 12.0448L20.2744 22.3831C20.2044 22.461 20.2644 22.5875 20.3743 22.5875H26.5112C26.6812 22.5875 26.8311 22.5096 26.931 22.3831L28.8701 20.0273C28.95 19.9397 29 19.8229 29 19.6963ZM9.12993 20.037L15.5067 27.8053C15.6067 27.9319 15.7666 28 15.9365 28H22.0735C22.1834 28 22.2434 27.8832 22.1734 27.8053L9.22988 12.0546C9.14992 11.967 9 12.0156 9 12.1324V19.706C9.01 19.8229 9.04997 19.9397 9.12993 20.037Z" fill="white"/>
</svg>
